<svg width="48" height="48" viewBox="0 0 48 48" fill="none" xmlns="http://www.w3.org/2000/svg">
  <rect width="48" height="48" rx="8" fill="#0088FF"/>
  <path d="M14 14H34V34H14V14Z" fill="#0066CC"/>
  <path d="M24 18C20.6863 18 18 20.6863 18 24C18 27.3137 20.6863 30 24 30C27.3137 30 30 27.3137 30 24C30 20.6863 27.3137 18 24 18ZM24 22C25.1046 22 26 22.8954 26 24C26 25.1046 25.1046 26 24 26C22.8954 26 22 25.1046 22 24C22 22.8954 22.8954 22 24 22Z" fill="white"/>
  <path d="M36 20H40V28H36V20Z" fill="white"/>
</svg>