<svg width="32" height="32" viewBox="0 0 32 32" fill="none" xmlns="http://www.w3.org/2000/svg">
  <path d="M16 32C24.8366 32 32 24.8366 32 16C32 7.16344 24.8366 0 16 0C7.16344 0 0 7.16344 0 16C0 24.8366 7.16344 32 16 32Z" fill="#E84142"/>
  <path d="M21.7033 21.9283H24.5773L16.0013 7.5L7.42529 21.9283H10.2993L16.0013 12.1887L21.7033 21.9283ZM11.9053 17.2113L10.0213 20.4453H14.1173L16.0013 17.2113L17.8853 20.4453H21.9813L20.0973 17.2113L18.2133 13.9773L16.0013 10.2887L13.7893 13.9773L11.9053 17.2113Z" fill="white"/>
</svg>