<svg width="40" height="40" viewBox="0 0 40 40" fill="none" xmlns="http://www.w3.org/2000/svg">
<g clip-path="url(#clip0_16980_83736)">
<rect width="40" height="40" rx="20" fill="#F0B90B"/>
<path d="M20 40C31.0457 40 40 31.0457 40 20C40 8.9543 31.0457 0 20 0C8.9543 0 0 8.9543 0 20C0 31.0457 8.9543 40 20 40Z" fill="#F0B90B"/>
<path fill-rule="evenodd" clip-rule="evenodd" d="M11.4886 14.9204L20.0086 6.40039L23.4058 9.79756L14.8858 18.3176L11.4886 14.9204ZM11.4948 25.1016L25.1106 11.4858L28.5078 14.8829L14.892 28.4988L11.4948 25.1016ZM30.2029 16.5877L16.5871 30.2035L19.9843 33.6007L33.6001 19.9848L30.2029 16.5877ZM6.40039 20.0076L9.79756 16.6104L13.1948 20.0076L9.79756 23.4048L6.40039 20.0076Z" fill="#FFFDFA"/>
</g>
<defs>
<clipPath id="clip0_16980_83736">
<rect width="40" height="40" rx="20" fill="white"/>
</clipPath>
</defs>
</svg>
