<svg width="32" height="32" viewBox="0 0 32 32" fill="none" xmlns="http://www.w3.org/2000/svg">
  <path d="M16 32C24.8366 32 32 24.8366 32 16C32 7.16344 24.8366 0 16 0C7.16344 0 0 7.16344 0 16C0 24.8366 7.16344 32 16 32Z" fill="#D1884F"/>
  <path d="M16 6C14.8954 6 14 6.89543 14 8C14 9.10457 14.8954 10 16 10C17.1046 10 18 9.10457 18 8C18 6.89543 17.1046 6 16 6Z" fill="white"/>
  <path d="M16 11C13.7909 11 12 12.7909 12 15C12 17.2091 13.7909 19 16 19C18.2091 19 20 17.2091 20 15C20 12.7909 18.2091 11 16 11ZM16 17C14.8954 17 14 16.1046 14 15C14 13.8954 14.8954 13 16 13C17.1046 13 18 13.8954 18 15C18 16.1046 17.1046 17 16 17Z" fill="white"/>
  <path d="M16 20C12.6863 20 10 22.6863 10 26H22C22 22.6863 19.3137 20 16 20Z" fill="white"/>
</svg>