<svg width="32" height="32" viewBox="0 0 32 32" fill="none" xmlns="http://www.w3.org/2000/svg">
  <path d="M16 32C24.8366 32 32 24.8366 32 16C32 7.16344 24.8366 0 16 0C7.16344 0 0 7.16344 0 16C0 24.8366 7.16344 32 16 32Z" fill="#2A5ADA"/>
  <path d="M16 7L13.5 8.5L11 10L8.5 11.5L6 13V19L8.5 20.5L11 22L13.5 23.5L16 25L18.5 23.5L21 22L23.5 20.5L26 19V13L23.5 11.5L21 10L18.5 8.5L16 7ZM16 9.5L18 10.75L20 12L22 13.25L24 14.5V17.5L22 18.75L20 20L18 21.25L16 22.5L14 21.25L12 20L10 18.75L8 17.5V14.5L10 13.25L12 12L14 10.75L16 9.5Z" fill="white"/>
  <path d="M16 13L14 14V18L16 19L18 18V14L16 13Z" fill="white"/>
</svg>