<svg width="32" height="32" viewBox="0 0 32 32" fill="none" xmlns="http://www.w3.org/2000/svg">
  <path d="M27.2684 4L17.9684 11.4L19.7684 7.2L27.2684 4Z" fill="#E17726"/>
  <path d="M4.76843 4L14.0684 11.4L12.2684 7.2L4.76843 4Z" fill="#E27625"/>
  <path d="M23.9684 21.6L21.5684 25.6L27.2684 27.2L28.8684 21.6H23.9684Z" fill="#E27625"/>
  <path d="M3.16843 21.6L4.76843 27.2L10.4684 25.6L8.06843 21.6H3.16843Z" fill="#E27625"/>
  <path d="M10.0684 14.4L8.46843 16.8L14.0684 17.2L13.8684 11.2L10.0684 14.4Z" fill="#E27625"/>
  <path d="M21.9684 14.4L18.1684 11.2L17.9684 17.2L23.5684 16.8L21.9684 14.4Z" fill="#E27625"/>
  <path d="M10.4684 25.6L13.6684 24L10.8684 21.6L10.4684 25.6Z" fill="#E27625"/>
  <path d="M18.3684 24L21.5684 25.6L21.1684 21.6L18.3684 24Z" fill="#E27625"/>
  <path d="M21.5684 25.6L18.3684 24L18.7684 26.4V27.2L21.5684 25.6Z" fill="#D5BFB2"/>
  <path d="M10.4684 25.6L13.2684 27.2V26.4L13.6684 24L10.4684 25.6Z" fill="#D5BFB2"/>
  <path d="M13.2684 20L10.6684 19.2L12.4684 18.4L13.2684 20Z" fill="#233447"/>
  <path d="M18.7684 20L19.5684 18.4L21.3684 19.2L18.7684 20Z" fill="#233447"/>
  <path d="M10.4684 25.6L10.8684 21.6L8.06843 21.6L10.4684 25.6Z" fill="#CC6228"/>
  <path d="M21.1684 21.6L21.5684 25.6L23.9684 21.6H21.1684Z" fill="#CC6228"/>
  <path d="M23.5684 16.8L17.9684 17.2L18.7684 20L19.5684 18.4L21.3684 19.2L23.5684 16.8Z" fill="#CC6228"/>
  <path d="M10.6684 19.2L12.4684 18.4L13.2684 20L14.0684 17.2L8.46843 16.8L10.6684 19.2Z" fill="#CC6228"/>
  <path d="M8.46843 16.8L10.8684 21.6L10.6684 19.2L8.46843 16.8Z" fill="#E27525"/>
  <path d="M21.3684 19.2L21.1684 21.6L23.5684 16.8L21.3684 19.2Z" fill="#E27525"/>
  <path d="M14.0684 17.2L13.2684 20L14.2684 23.2L14.4684 18.8L14.0684 17.2Z" fill="#E27525"/>
  <path d="M17.9684 17.2L17.5684 18.8L17.7684 23.2L18.7684 20L17.9684 17.2Z" fill="#E27525"/>
  <path d="M18.7684 20L17.7684 23.2L18.3684 24L21.1684 21.6L21.3684 19.2L18.7684 20Z" fill="#F5841F"/>
  <path d="M10.6684 19.2L10.8684 21.6L13.6684 24L14.2684 23.2L13.2684 20L10.6684 19.2Z" fill="#F5841F"/>
  <path d="M18.7684 27.2V26.4L18.3684 26H13.6684L13.2684 26.4V27.2L10.4684 25.6L11.6684 26.6L13.6684 28H18.3684L20.3684 26.6L21.5684 25.6L18.7684 27.2Z" fill="#C0AC9D"/>
  <path d="M18.3684 24L17.7684 23.2H14.2684L13.6684 24L13.2684 26.4L13.6684 26H18.3684L18.7684 26.4L18.3684 24Z" fill="#161616"/>
  <path d="M28.0684 12L28.8684 8L27.2684 4L18.3684 11.2L21.9684 14.4L27.0684 16L28.2684 14.6L27.6684 14.2L28.4684 13.4L27.8684 12.8L28.6684 12.2L28.0684 12Z" fill="#763E1A"/>
  <path d="M3.16843 8L3.96843 12L3.36843 12.2L4.16843 12.8L3.56843 13.4L4.36843 14.2L3.76843 14.6L4.96843 16L10.0684 14.4L13.6684 11.2L4.76843 4L3.16843 8Z" fill="#763E1A"/>
  <path d="M27.0684 16L21.9684 14.4L23.5684 16.8L21.1684 21.6H23.9684H28.8684L27.0684 16Z" fill="#F5841F"/>
  <path d="M10.0684 14.4L4.96843 16L3.16843 21.6H8.06843H10.8684L8.46843 16.8L10.0684 14.4Z" fill="#F5841F"/>
  <path d="M17.9684 17.2L18.3684 11.2L19.7684 7.2H12.2684L13.6684 11.2L14.0684 17.2L14.2684 18.8V23.2H17.7684V18.8L17.9684 17.2Z" fill="#F5841F"/>
</svg>