<svg width="32" height="32" viewBox="0 0 32 32" fill="none" xmlns="http://www.w3.org/2000/svg">
  <path d="M16 32C24.8366 32 32 24.8366 32 16C32 7.16344 24.8366 0 16 0C7.16344 0 0 7.16344 0 16C0 24.8366 7.16344 32 16 32Z" fill="#3B99FC"/>
  <path d="M10.8 12C14.4 8.4 20 8.4 23.6 12L24 12.4C24.4 12.8 24.4 13.2 24 13.6L22.8 14.8C22.6 15 22.2 15 22 14.8L21.4 14.2C18.8 11.6 15.2 11.6 12.6 14.2L12 14.8C11.8 15 11.4 15 11.2 14.8L10 13.6C9.6 13.2 9.6 12.8 10 12.4L10.8 12ZM26 14.4C26.4 14.8 26.4 15.2 26 15.6L20 21.6C19.6 22 19.2 22 18.8 21.6L14.4 17.2C14.2 17 14 17 13.8 17.2L9.4 21.6C9 22 8.6 22 8.2 21.6L2.2 15.6C1.8 15.2 1.8 14.8 2.2 14.4L3.4 13.2C3.8 12.8 4.2 12.8 4.6 13.2L9 17.6C9.2 17.8 9.4 17.8 9.6 17.6L14 13.2C14.4 12.8 14.8 12.8 15.2 13.2L19.6 17.6C19.8 17.8 20 17.8 20.2 17.6L24.6 13.2C25 12.8 25.4 12.8 25.8 13.2L26 14.4Z" fill="white"/>
</svg>